Coordinates
version=1
nRows=17
nColumns=36
inDegrees=yes

Units are S.I. units (second, meters, Newtons, ...)
If the header above contains a line with 'inDegrees', this indicates whether rotational values are in degrees (yes) or radians (no).

endheader
time	pelvis_tilt	pelvis_list	pelvis_rotation	pelvis_tx	pelvis_ty	pelvis_tz	hip_flexion_r	hip_adduction_r	hip_rotation_r	knee_angle_r	knee_angle_r_beta	ankle_angle_r	subtalar_angle_r	mtp_angle_r	hip_flexion_l	hip_adduction_l	hip_rotation_l	knee_angle_l	knee_angle_l_beta	ankle_angle_l	subtalar_angle_l	mtp_angle_l	lumbar_extension	lumbar_bending	lumbar_rotation	arm_flex_r	arm_add_r	arm_rot_r	elbow_flex_r	pro_sup_r	arm_flex_l	arm_add_l	arm_rot_l	elbow_flex_l	pro_sup_l
      2.06666670	    -20.75311360	     -2.38946034	      6.70807278	      0.89175671	      1.28391701	     -0.25258085	     35.23240925	     -5.58728679	      1.15477118	     22.91549487	      0.39995084	    -10.75670659	     -6.06491751	     -7.49999987	     31.50517668	     -5.57188788	     -1.68210638	     21.50316496	      0.37530103	     -7.12620589	     -7.65698774	     -7.49999987	     -8.99448500	     -2.16601930	     -3.48006222	     42.67312505	    -31.43909026	      2.44302829	     80.33161621	    100.64152232	     39.50814762	    -44.82439141	     -7.43749949	     77.99113768	     95.72646807
      2.08333330	    -20.56485316	     -2.52624886	      7.06348169	      0.91706946	      1.26678916	     -0.26057808	     35.39166559	     -5.96667879	      0.12039493	     18.77780232	      0.32773448	    -12.86514729	     -5.27132205	     -7.49999987	     31.71374962	     -5.66352248	     -0.90753188	     18.00727391	      0.31428622	     -8.27577367	     -7.45393957	     -7.49999987	     -9.26679472	     -1.83984194	     -2.86398088	     38.22761226	    -31.83326689	      0.74130882	     77.71526637	    101.37926898	     35.59089036	    -42.35076577	     -9.05779201	     74.42198447	     96.04806682
      2.10000000	    -20.19110568	     -3.10827618	      7.30558765	      0.94099150	      1.24266301	     -0.25643911	     35.41681783	     -5.52794816	     -0.08058147	     15.58604703	      0.27202784	    -13.54061637	     -4.80317196	     -7.49999987	     31.28824669	     -6.17839033	      1.28225997	     14.67841693	      0.25618670	     -7.36194884	     -6.89675752	     -7.49999987	     -9.07051548	     -0.96137322	     -2.29474235	     34.75941582	    -31.32617602	     -1.22512092	     74.09374186	    102.04549532	     32.82815023	    -39.47186279	    -10.50600034	     70.68579966	     96.53745925
      2.11666670	    -20.30846748	     -3.56914276	      8.03130727	      0.95196370	      1.20936780	     -0.25887674	     37.53948782	     -5.56280498	      0.20216048	     15.37334809	      0.26831554	    -13.20005532	     -5.08392203	     -7.49999987	     33.56359831	     -6.39338024	      3.80526700	     14.05093282	      0.24523504	     -5.71323211	     -6.95761420	     -7.49999987	     -9.51846794	     -0.51154153	     -1.61019765	     33.05299596	    -32.07843805	     -3.27380426	     70.95324447	    101.36327747	     30.94662040	    -38.00841454	    -11.30615493	     69.62548450	     95.96798825
      2.13333330	    -20.07738864	     -3.47733396	      8.39383855	      0.97431588	      1.18496782	     -0.26535410	     38.54712885	     -6.04694805	      0.17224803	     13.86133482	      0.24192593	    -14.38252822	     -5.91025987	     -7.49999987	     34.88057242	     -6.25267243	      4.81322831	     13.70087999	      0.23912547	     -6.52137312	     -8.57491011	     -7.49999987	     -9.99946781	     -0.55221870	     -0.94163018	     30.94846337	    -32.13992056	     -4.75290457	     67.47567038	    101.28986171	     28.55404815	    -36.44580151	    -12.31996701	     68.14826256	     95.84450823
      2.15000000	    -19.52901329	     -3.25715241	      8.58617959	      0.99712183	      1.15530501	     -0.27293448	     38.30241777	     -6.58376203	      0.34277146	     11.70150973	      0.20422987	    -15.19646591	     -5.72710905	     -7.49999987	     34.81833038	     -6.07671579	      5.89358600	     12.49738511	      0.21812052	     -6.97400996	     -9.90410151	     -7.49999987	    -10.26711898	     -0.56283997	     -0.27223139	     29.06495007	    -32.36519750	     -6.02009016	     63.73277897	    101.55903813	     25.77042094	    -34.58179277	    -13.64520446	     66.43862618	     96.03331068
      2.16666670	    -19.39549987	     -3.02847250	      8.95252219	      1.00573988	      1.11562942	     -0.27296490	     39.82156820	     -7.35844697	      0.29206700	     11.77914787	      0.20558491	    -16.37975699	     -5.88878088	     -7.49999987	     36.71239153	     -5.74964854	      6.56756243	     13.31834907	      0.23244904	     -6.73731323	    -10.76083391	     -7.49999987	    -10.72763523	     -0.66040797	     -0.94486872	     28.20718890	    -32.07566316	     -6.10048005	     61.30111347	    100.61955865	     22.28293902	    -34.29588193	    -16.27509974	     66.79418028	     95.64056859
      2.18333330	    -19.00669270	     -3.06697796	      9.07394414	      1.02613264	      1.07636484	     -0.26868688	     41.31390652	     -7.46228075	      0.17741588	     12.32472047	      0.21510695	    -17.42607381	     -6.85540934	     -7.49999987	     38.54831160	     -5.85640030	      7.49671176	     14.72172441	      0.25694256	     -5.19291377	    -11.45139186	     -7.49999987	    -10.98709733	     -0.58203841	     -0.99526277	     25.95230043	    -31.78460285	     -6.61316086	     60.25433979	     99.36795938	     20.26953348	    -34.36416344	    -16.79399141	     66.18764279	     94.67444236
      2.20000000	    -17.85524067	     -2.64353371	      8.78386288	      1.05772843	      1.03959934	     -0.26907164	     40.89935890	     -7.52593563	      0.09399310	     12.58296712	      0.21961421	    -16.90509769	     -6.63482011	     -7.49999987	     38.41268605	     -5.98072802	      7.70015944	     15.60453538	      0.27235052	     -3.36230812	    -11.86260606	     -7.49999987	    -11.35725133	     -1.10386900	     -0.81870856	     22.75730461	    -31.05754226	     -6.37099562	     59.33829325	     98.32096455	     18.14614697	    -34.79808295	    -17.12117410	     65.19871376	     93.78130879
      2.21666670	    -16.87286945	     -1.93266046	      8.61435444	      1.07901998	      0.99752186	     -0.28269377	     40.55733955	     -8.16109598	      0.19434539	     13.39750484	      0.23383057	    -17.75149742	     -7.31671426	     -7.49999987	     38.11395929	     -5.40816508	      7.36116747	     17.53134996	      0.30597978	     -1.50777993	    -11.22988817	     -7.49999987	    -11.07630315	     -1.29758356	     -1.06707897	     20.67070283	    -29.94292902	     -7.62360775	     57.75394414	     97.21518114	     15.85280183	    -33.99900519	    -18.15224539	     64.22812091	     93.07863973
      2.23333330	    -15.71791019	     -1.37642810	      8.38996556	      1.09319024	      0.95885120	     -0.28045462	     40.57726099	     -8.54720960	     -0.00355544	     15.03195275	      0.26235707	    -17.84210797	     -7.19393490	     -7.49999987	     38.36794396	     -5.17429421	      7.04353457	     19.93435611	      0.34792015	      1.19309195	     -9.99967200	     -7.49999987	    -11.30409034	     -1.73089496	     -0.39791352	     19.80596721	    -29.72857594	     -7.12387421	     56.08799915	     96.01734861	     15.10416107	    -33.31548395	    -17.99727481	     64.39884392	     92.16748843
      2.25000000	    -15.18799032	     -1.65245240	      8.30246089	      1.11223569	      0.91153367	     -0.27083593	     42.36751562	     -8.02099772	      0.01431650	     18.73615737	      0.32700764	    -16.14799947	     -8.28264866	     -7.49999987	     40.95341691	     -5.89731646	      7.08844216	     24.20096015	      0.42238644	      4.15267749	     -9.61772064	     -7.49999987	    -11.92950756	     -1.57989704	      0.00624350	     19.75066331	    -29.26418443	     -6.42507297	     54.93007510	     94.10669369	     15.24781930	    -33.99704345	    -17.50690716	     64.52262457	     90.66760640
      2.26666670	    -15.04448973	     -1.68009215	      7.72407901	      1.14133751	      0.86648672	     -0.28329273	     44.72116229	     -7.62180850	      0.91602352	     24.35905921	      0.42514579	    -11.30314432	     -9.73546757	     -7.49999987	     43.66061819	     -6.37631219	      6.96904616	     29.62165832	      0.51699547	      8.70605416	     -9.34972054	     -7.49999987	    -12.09263162	     -1.34870482	      0.73841804	     19.50868806	    -29.02785422	     -5.89424436	     53.89172409	     91.76855474	     15.29711863	    -33.52912104	    -17.44263533	     64.53195294	     88.72481142
      2.28333330	    -15.93101685	     -1.21413463	      7.17765085	      1.13774914	      0.82684841	     -0.28341688	     51.48175998	     -7.77618146	      3.01883020	     35.41772940	      0.61815599	     -4.83614535	    -11.56847845	     -7.49999987	     49.73231193	     -6.53767717	      5.96762798	     38.52798637	      0.67244022	     14.35606964	     -8.34673721	     -7.49999987	    -13.31303657	     -1.68749455	      1.14316575	     21.57555421	    -29.16535518	     -5.24478672	     54.05783984	     86.56024630	     17.95042652	    -33.66770839	    -16.30029975	     66.16583130	     84.27042706
      2.30000000	    -16.48170992	     -0.25302013	      7.06059360	      1.14476971	      0.79779528	     -0.28199662	     58.98440535	     -8.07912483	      5.25341352	     47.90957625	      0.83617985	      2.22976575	    -12.53859844	     -7.49999987	     56.42012743	     -6.50340351	      4.61423470	     48.57042636	      0.84771386	     19.40444337	     -7.04229169	     -7.49999987	    -15.76411426	     -2.66590643	      1.34127420	     25.23459665	    -28.71600011	     -3.98306011	     52.65375660	     86.57880765	     22.74730579	    -34.20665113	    -13.94446950	     65.19419225	     84.48995123
      2.31666670	    -17.32486256	      0.43520859	      7.02457277	      1.14299238	      0.76504946	     -0.28885752	     65.99304940	     -8.19046628	      7.00303948	     58.35783562	      1.01853638	      8.55954059	    -12.03429922	     -7.49999987	     63.01310159	     -6.64986341	      3.48809491	     57.61324093	      1.00554075	     22.69937537	     -6.29899622	     -7.49999987	    -18.35528548	     -3.21396624	      1.56301417	     28.51567356	    -28.50576245	     -3.42401102	     52.17307530	     86.36689774	     28.30820468	    -33.27864002	    -11.72057660	     64.38461099	     84.52258565
      2.33333330	    -18.34326040	      0.72141282	      6.83137891	      1.14737536	      0.74096950	     -0.28672614	     71.99356699	     -7.87624644	      8.22529737	     66.87481841	      1.16718577	     14.13306013	    -10.84896080	     -7.49999987	     68.79838166	     -7.32588666	      2.61107496	     65.46122087	      1.14251384	     25.47164502	     -5.24402209	     -7.49999987	    -21.55127717	     -3.74602715	      1.63895119	     33.21405076	    -27.77827470	     -2.57385232	     51.77394742	     86.13430694	     34.15808892	    -32.72868938	     -9.87095152	     64.12461067	     84.17369808
